<svg width="289" height="208" viewBox="0 0 289 208" fill="none" xmlns="http://www.w3.org/2000/svg">
<rect width="289" height="208" fill="#18181B"/>
<path d="M110.609 117H114.353L116.369 111.348H128.357L130.409 117H134.369L124.541 90.8999H120.293L110.609 117ZM122.309 94.6079L127.205 108.216H117.485L122.309 94.6079ZM153.383 117H157.487L151.439 105.408C154.643 104.544 156.623 102.564 156.623 98.4239C156.623 92.1599 152.087 90.8999 145.751 90.8999H137.471V117H141.143V106.02H145.751C146.435 106.02 147.047 106.02 147.731 105.984L153.383 117ZM146.039 93.9959C149.891 93.9959 152.843 94.4639 152.843 98.4959C152.843 102.528 149.891 102.924 146.039 102.924H141.143V93.9959H146.039ZM166.215 117H169.887V94.0679H178.383V90.8999H157.719V94.0679H166.215V117Z" fill="white"/>
</svg>
