<svg width="288" height="208" viewBox="0 0 288 208" fill="none" xmlns="http://www.w3.org/2000/svg">
<path d="M288 0H0V208H288V0Z" fill="white"/>
<path d="M87.8383 90.9H84.1663V117H87.8383V90.9ZM92.9652 97.56C92.9652 101.88 96.5292 103.896 100.129 104.688L103.369 105.372C106.609 106.128 108.985 107.208 108.985 109.98C108.985 112.572 106.789 114.372 102.901 114.372C98.8692 114.372 96.3852 112.5 95.7012 108.9H92.1012C92.7852 114.084 96.6732 117.468 102.829 117.468C108.013 117.468 112.765 114.732 112.765 109.656C112.765 104.4 107.977 102.888 103.981 102.024L100.957 101.34C98.5092 100.8 96.7092 99.648 96.7092 97.344C96.7092 94.428 100.237 93.528 102.253 93.528C104.845 93.528 107.869 94.572 108.733 97.56H112.297C111.253 92.556 107.113 90.432 102.397 90.432C98.1852 90.432 92.9652 92.556 92.9652 97.56ZM122.156 117H125.828V94.068H134.324V90.9H113.66V94.068H122.156V117ZM138.541 103.932C138.541 97.2 142.285 93.528 147.037 93.528C151.789 93.528 155.533 97.2 155.533 103.932C155.533 110.664 151.789 114.372 147.037 114.372C142.285 114.372 138.541 110.664 138.541 103.932ZM159.277 103.932C159.277 96.048 154.561 90.432 147.037 90.432C139.513 90.432 134.797 96.048 134.797 103.932C134.797 111.816 139.513 117.468 147.037 117.468C154.561 117.468 159.277 111.816 159.277 103.932ZM180.129 117H184.233L178.185 105.408C181.389 104.544 183.369 102.564 183.369 98.424C183.369 92.16 178.833 90.9 172.497 90.9H164.217V117H167.889V106.02H172.497C173.181 106.02 173.793 106.02 174.477 105.984L180.129 117ZM172.785 93.996C176.637 93.996 179.589 94.464 179.589 98.496C179.589 102.528 176.637 102.924 172.785 102.924H167.889V93.996H172.785ZM184.465 90.9L193.681 106.812V117H197.353V106.884L206.929 90.9H202.897L195.625 103.644L188.497 90.9H184.465Z" fill="black"/>
</svg>
