<svg width="289" height="208" viewBox="0 0 289 208" fill="none" xmlns="http://www.w3.org/2000/svg">
<g clip-path="url(#clip0_1441_5234)">
<path d="M288.5 0H0.5V208H288.5V0Z" fill="white"/>
<path d="M110.609 117H114.353L116.369 111.348H128.357L130.409 117H134.369L124.541 90.9H120.293L110.609 117ZM122.309 94.608L127.205 108.216H117.485L122.309 94.608ZM153.383 117H157.487L151.439 105.408C154.643 104.544 156.623 102.564 156.623 98.424C156.623 92.16 152.087 90.9 145.751 90.9H137.471V117H141.143V106.02H145.751C146.435 106.02 147.047 106.02 147.731 105.984L153.383 117ZM146.039 93.996C149.891 93.996 152.843 94.464 152.843 98.496C152.843 102.528 149.891 102.924 146.039 102.924H141.143V93.996H146.039ZM166.215 117H169.887V94.068H178.383V90.9H157.719V94.068H166.215V117Z" fill="black"/>
</g>
<defs>
<clipPath id="clip0_1441_5234">
<rect width="288" height="208" fill="white" transform="translate(0.5)"/>
</clipPath>
</defs>
</svg>
